<svg width="32" height="33" viewBox="0 0 32 33" fill="none" xmlns="http://www.w3.org/2000/svg">
<rect y="0.312988" width="32" height="32" rx="6.4" fill="#3D3D3D"/>
<g clip-path="url(#clip0_1_757)">
<path d="M16.1833 8.31785C16.159 8.12435 15.8413 8.12435 15.8179 8.31785C15.0232 14.7142 10.9597 16.0327 10.9597 20.4787C10.9597 23.2264 13.2673 25.453 16.0006 25.453C18.733 25.453 21.0406 23.2255 21.0406 20.4787C21.0406 16.0327 16.978 14.7142 16.1833 8.31785ZM15.4156 15.3892C15.3625 15.5863 15.3049 15.7888 15.2455 15.9994C14.8846 17.281 14.4751 18.7345 14.4751 20.4148C14.4751 21.3256 13.9369 21.6487 13.4347 21.6487C13.2974 21.6481 13.1617 21.6205 13.0351 21.5674C12.9086 21.5143 12.7937 21.4369 12.6971 21.3394C12.6005 21.242 12.524 21.1265 12.4721 20.9995C12.4201 20.8725 12.3937 20.7365 12.3943 20.5993C12.3943 18.613 13.3501 17.3152 14.1943 16.1713C14.4598 15.8131 14.7091 15.4738 14.9116 15.1363C15.0043 14.9815 15.2536 14.9887 15.367 15.1417C15.4201 15.2137 15.4381 15.3055 15.4156 15.3892Z" fill="#5A92CB"/>
</g>
<defs>
<clipPath id="clip0_1_757">
<rect width="18" height="18" fill="white" transform="translate(7.00049 7.81299)"/>
</clipPath>
</defs>
</svg>
