<svg width="40" height="40" viewBox="0 0 40 40" fill="none" xmlns="http://www.w3.org/2000/svg">
<g clip-path="url(#clip0_1_1192)">
<path d="M26.3411 19.615C26.1059 19.2571 25.8195 18.9468 25.5536 18.6366C24.8684 17.9207 24.0911 17.4076 23.4366 16.6559C21.9127 14.9139 21.5752 12.0383 22.5468 9.83093C21.5752 10.1054 20.7264 10.7258 20.0002 11.4059C17.3514 13.8878 16.3082 18.2667 17.5559 22.0253C17.5968 22.1446 17.6377 22.2639 17.6377 22.419C17.6377 22.6815 17.4843 22.9201 17.2798 23.0156C17.0445 23.1349 16.7991 23.0633 16.6048 22.8724C16.5434 22.8128 16.5025 22.7531 16.4616 22.6696C15.3059 20.9633 15.1218 18.5173 15.8991 16.5605C14.1911 18.1832 13.2604 20.9275 13.3934 23.5167C13.4548 24.1133 13.5161 24.7099 13.69 25.3065C13.8332 26.0224 14.1093 26.7383 14.4161 27.3707C15.5207 29.4349 17.4332 30.9145 19.4889 31.2127C21.6775 31.5349 24.0195 31.0696 25.6968 29.3037C27.5684 27.323 28.223 24.1491 27.2616 21.4287L27.1286 21.1184C26.9139 20.5696 26.3411 19.615 26.3411 19.615ZM23.1093 27.1321C22.8229 27.4184 22.3525 27.7287 21.9843 27.848C20.8389 28.3253 19.6934 27.6571 19.0184 26.8696C20.2354 26.5355 20.9616 25.4855 21.1764 24.4235C21.3502 23.469 21.0229 22.6815 20.89 21.7628C20.7673 20.8798 20.7877 20.1281 21.0639 19.3048C21.2582 19.7582 21.4627 20.2116 21.7082 20.5696C22.4957 21.7628 23.7332 22.2878 23.9991 23.9105C24.04 24.0775 24.0604 24.2446 24.0604 24.4235C24.0911 25.402 23.7229 26.4758 23.1093 27.1321Z" fill="#B5B5B5" fill-opacity="0.5"/>
</g>
<defs>
<clipPath id="clip0_1_1192">
<rect x="11.3359" y="2.5" width="24.5455" height="28.6364" rx="4.09091" fill="white"/>
</clipPath>
</defs>
</svg>
