<svg width="41" height="40" viewBox="0 0 41 40" fill="none" xmlns="http://www.w3.org/2000/svg">
<path d="M12.5663 12.4006C12.3276 12.4006 12.0987 12.4899 11.9299 12.6489C11.7611 12.8079 11.6663 13.0236 11.6663 13.2484V16.6397V17.9115C11.6663 19.3443 12.5933 20.5652 13.9163 21.0654V26.3897C13.9163 26.727 14.0586 27.0505 14.3117 27.289C14.5649 27.5275 14.9083 27.6615 15.2663 27.6615C15.6244 27.6615 15.9677 27.5275 16.2209 27.289C16.4741 27.0505 16.6163 26.727 16.6163 26.3897V21.0654C17.9393 20.5652 18.8663 19.3443 18.8663 17.9115V16.6397V13.2484C18.8663 13.0236 18.7715 12.8079 18.6027 12.6489C18.4339 12.4899 18.205 12.4006 17.9663 12.4006C17.7276 12.4006 17.4987 12.4899 17.3299 12.6489C17.1611 12.8079 17.0663 13.0236 17.0663 13.2484V16.6397C17.0663 16.7522 17.0189 16.86 16.9345 16.9395C16.8501 17.019 16.7357 17.0637 16.6163 17.0637C16.497 17.0637 16.3825 17.019 16.2981 16.9395C16.2137 16.86 16.1663 16.7522 16.1663 16.6397V13.2484C16.1663 13.0236 16.0715 12.8079 15.9027 12.6489C15.7339 12.4899 15.505 12.4006 15.2663 12.4006C15.0276 12.4006 14.7987 12.4899 14.6299 12.6489C14.4611 12.8079 14.3663 13.0236 14.3663 13.2484V16.6397C14.3663 16.7522 14.3189 16.86 14.2345 16.9395C14.1501 17.019 14.0357 17.0637 13.9163 17.0637C13.797 17.0637 13.6825 17.019 13.5981 16.9395C13.5137 16.86 13.4663 16.7522 13.4663 16.6397V13.2484C13.4663 13.0236 13.3715 12.8079 13.2027 12.6489C13.0339 12.4899 12.805 12.4006 12.5663 12.4006ZM27.7583 12.4006C27.6413 12.4006 27.5243 12.4769 27.4163 12.5363L24.2663 14.3082V17.4876H20.6663V19.1832H21.5663L22.4663 27.6615H27.8663L28.7663 19.1832H29.6663V17.4876H26.0663V15.2324L28.3163 13.9606C28.7663 13.7232 28.8833 13.2484 28.6223 12.8245C28.4333 12.5193 28.1003 12.3582 27.7583 12.4006Z" fill="#B5B5B5" fill-opacity="0.5"/>
</svg>
