<svg width="40" height="40" viewBox="0 0 40 40" fill="none" xmlns="http://www.w3.org/2000/svg">
<path d="M10.7955 22.7075L11.3068 22.7749L15.9807 18.372C15.7966 17.7458 15.9705 17.0329 16.5125 16.5319C17.3102 15.7708 18.5989 15.7708 19.3966 16.5319C19.9386 17.0329 20.1125 17.7458 19.9284 18.372L22.5568 20.8481L23.0682 20.7806C23.2523 20.7806 23.4261 20.7806 23.5796 20.8481L27.2307 17.4086C27.1591 17.2641 27.1591 17.1003 27.1591 16.9269C27.1591 16.4158 27.3746 15.9257 27.7582 15.5644C28.1418 15.203 28.6621 15 29.2046 15C29.7471 15 30.2673 15.203 30.6509 15.5644C31.0345 15.9257 31.25 16.4158 31.25 16.9269C31.25 17.4379 31.0345 17.928 30.6509 18.2894C30.2673 18.6507 29.7471 18.8538 29.2046 18.8538C29.0205 18.8538 28.8466 18.8538 28.6932 18.7863L25.0421 22.2258C25.1137 22.3703 25.1137 22.5341 25.1137 22.7075C25.1137 23.2185 24.8981 23.7087 24.5146 24.07C24.131 24.4314 23.6107 24.6344 23.0682 24.6344C22.5257 24.6344 22.0054 24.4314 21.6218 24.07C21.2382 23.7087 21.0227 23.2185 21.0227 22.7075L21.0943 22.2258L18.4659 19.7498C18.1386 19.8172 17.7705 19.8172 17.4432 19.7498L12.7693 24.1527L12.8409 24.6344C12.8409 25.1454 12.6254 25.6355 12.2418 25.9969C11.8582 26.3583 11.3379 26.5613 10.7955 26.5613C10.253 26.5613 9.7327 26.3583 9.3491 25.9969C8.9655 25.6355 8.75 25.1454 8.75 24.6344C8.75 24.1233 8.9655 23.6332 9.3491 23.2719C9.7327 22.9105 10.253 22.7075 10.7955 22.7075Z" fill="#D15439"/>
</svg>
