<svg width="32" height="32" viewBox="0 0 32 32" fill="none" xmlns="http://www.w3.org/2000/svg">
<rect width="32" height="32" rx="6.4" fill="#3D3D3D"/>
<path d="M22.4525 15.7002C22.2084 15.4002 21.9111 15.1402 21.6351 14.8802C20.9239 14.2802 20.1171 13.8502 19.4377 13.2202C17.8559 11.7601 17.5056 9.35005 18.5141 7.5C17.5056 7.73001 16.6245 8.25002 15.8708 8.82004C13.1213 10.9001 12.0385 14.5702 13.3336 17.7203C13.3761 17.8203 13.4185 17.9203 13.4185 18.0503C13.4185 18.2703 13.2593 18.4703 13.047 18.5503C12.8028 18.6503 12.548 18.5903 12.3464 18.4303C12.2827 18.3803 12.2402 18.3303 12.1977 18.2603C10.9982 16.8303 10.8071 14.7802 11.6139 13.1402C9.84104 14.5002 8.87501 16.8003 9.01301 18.9703C9.07671 19.4703 9.1404 19.9704 9.32087 20.4704C9.46949 21.0704 9.75611 21.6704 10.0746 22.2004C11.2211 23.9305 13.2062 25.1705 15.34 25.4205C17.6118 25.6905 20.0428 25.3005 21.7837 23.8205C23.7264 22.1604 24.4058 19.5003 23.4079 17.2203L23.2699 16.9603C23.047 16.5003 22.4525 15.7002 22.4525 15.7002ZM19.098 22.0004C18.8007 22.2404 18.3124 22.5004 17.9302 22.6004C16.7413 23.0004 15.5523 22.4404 14.8517 21.7804C16.1149 21.5004 16.8687 20.6204 17.0916 19.7303C17.272 18.9303 16.9323 18.2703 16.7943 17.5003C16.667 16.7603 16.6882 16.1302 16.9748 15.4402C17.1765 15.8202 17.3888 16.2002 17.6436 16.5003C18.461 17.5003 19.7455 17.9403 20.0215 19.3003C20.064 19.4403 20.0852 19.5803 20.0852 19.7303C20.1171 20.5504 19.7349 21.4504 19.098 22.0004Z" fill="#DE6C53"/>
</svg>
