<svg width="41" height="40" viewBox="0 0 41 40" fill="none" xmlns="http://www.w3.org/2000/svg">
<path d="M29.4497 23.6398L30.9122 22.2621L29.4497 20.8844L25.7986 24.3239L17.0338 16.0672L20.685 12.6277L19.2225 11.25L17.76 12.6277L16.2974 11.25L14.1088 13.3118L12.6463 11.934L11.1838 13.3118L12.6463 14.6895L10.4577 16.7512L11.9202 18.129L10.4577 19.5067L11.9202 20.8844L15.5713 17.4449L24.3361 25.7016L20.685 29.1411L22.1475 30.5188L23.61 29.1411L25.0725 30.5188L27.2611 28.457L28.7236 29.8347L30.1861 28.457L28.7236 27.0793L30.9122 25.0175L29.4497 23.6398Z" fill="#D15439"/>
</svg>
