<svg width="32" height="33" viewBox="0 0 32 33" fill="none" xmlns="http://www.w3.org/2000/svg">
<rect y="0.5" width="32" height="32" rx="6.4" fill="#3D3D3D"/>
<path d="M15.0853 16.7558C15.5088 17.8642 15.4637 19.0175 14.1932 19.4771C11.5801 20.4412 10.9944 17.9092 10.9583 17.7831L15.0853 16.7558ZM10.5528 16.026L14.4455 15.0618C14.2743 14.1157 14.5356 13.1696 14.5356 12.0522C14.5356 10.5384 13.3372 7.57389 11.4269 8.05146C9.24627 8.59211 8.93089 11.016 9.01199 12.1874C9.12012 13.3588 10.4898 15.8638 10.5528 16.026ZM21.4919 24.0816C21.4649 24.2167 20.8702 26.7397 18.2571 25.7846C16.9955 25.3161 16.9415 24.1627 17.365 23.0544L21.4919 24.0816ZM23.4292 18.4949C23.5193 17.3235 23.213 14.8906 21.0234 14.35C19.1221 13.8544 17.9237 16.8369 17.9237 18.3598C17.9237 19.4681 18.176 20.4142 18.0228 21.3603L21.8974 22.3245C21.9695 22.1623 23.3301 19.6573 23.4292 18.4949Z" fill="#81B47D"/>
</svg>
